<?xml version="1.0" encoding="utf-8"?>
<!-- Generator: Adobe Illustrator 16.0.0, SVG Export Plug-In . SVG Version: 6.00 Build 0)  -->
<!DOCTYPE svg PUBLIC "-//W3C//DTD SVG 1.1//EN" "http://www.w3.org/Graphics/SVG/1.1/DTD/svg11.dtd">
<svg version="1.1" id="Layer_1" xmlns="http://www.w3.org/2000/svg" xmlns:xlink="http://www.w3.org/1999/xlink" x="0px" y="0px"
	 width="50px" height="50px" viewBox="25 25 50 50" enable-background="new 25 25 50 50" xml:space="preserve">
<g>
	<path fill="#F1574D" d="M53.422,51.823c-0.321-0.115-0.315-0.122-0.059-0.335c1.652-1.372,2.371-3.142,2.16-5.261
		c-0.311-3.135-3.276-5.494-6.417-5.104c-2.135,0.266-3.728,1.383-4.621,3.342c-0.952,2.087-0.71,4.105,0.637,5.974
		c0.362,0.501,0.824,0.912,1.321,1.285c-0.096,0.126-0.229,0.141-0.343,0.184c-1.678,0.644-3.151,1.592-4.342,2.948
		c-0.822,0.932-1.408,1.988-1.431,3.265c-0.026,1.447,0,2.897-0.011,4.344c-0.002,0.308,0.104,0.398,0.408,0.398
		c6.016-0.008,12.032-0.009,18.046,0.002c0.334,0,0.413-0.119,0.411-0.428c-0.013-1.277-0.039-2.558,0.002-3.833
		c0.054-1.641-0.592-2.98-1.665-4.152C56.387,53.217,54.991,52.383,53.422,51.823z M58.01,58.174c-0.005,1.021,0,2.044-0.001,3.066
		c0,0.445-0.003,0.446-0.439,0.446c-2.608,0.003-5.216,0-7.823,0c-2.567,0-5.133,0-7.697,0c-0.563,0-0.563,0-0.563-0.545
		c0-0.884,0.027-1.768-0.007-2.65c-0.036-0.922,0.279-1.706,0.806-2.434c0.704-0.964,1.628-1.67,2.635-2.284
		c1.021-0.623,2.161-0.945,3.28-1.319c0.232-0.078,0.466-0.149,0.697-0.231c0.074-0.026,0.189-0.023,0.19-0.136
		c0.001-0.083-0.084-0.117-0.146-0.156c-0.509-0.331-1.016-0.664-1.53-0.985c-1.493-0.925-2.309-2.264-2.32-4.013
		c-0.016-2.3,1.595-4.138,3.722-4.571c2.712-0.551,5.268,1.314,5.555,4.061c0.193,1.819-0.506,3.263-1.986,4.324
		c-0.544,0.391-1.114,0.745-1.669,1.122c-0.092,0.063-0.25,0.104-0.223,0.239c0.025,0.13,0.187,0.118,0.293,0.15
		c1.033,0.327,2.1,0.561,3.087,1.024c1.615,0.762,2.994,1.794,3.806,3.445C57.896,57.182,58.012,57.662,58.01,58.174z"/>
	<path fill="#F1574D" d="M66.146,54.182c0.005-0.951-0.257-1.83-0.73-2.645c-1-1.723-2.511-2.865-4.291-3.678
		c-0.279-0.128-0.268-0.202-0.078-0.411c1.291-1.437,1.865-3.132,1.559-5.037c-0.421-2.597-1.934-4.354-4.475-5.037
		c-2.5-0.672-4.644,0.078-6.331,2.048c-0.607,0.707-0.462,0.559,0.16,1.004c0.25,0.179,0.387,0.159,0.586-0.102
		c1.181-1.559,2.776-2.232,4.7-1.983c3.616,0.472,5.482,4.656,3.47,7.694c-0.501,0.757-1.196,1.289-1.944,1.771
		c-0.119,0.077-0.331,0.129-0.313,0.28c0.022,0.182,0.25,0.162,0.396,0.202c1.914,0.527,3.635,1.381,4.946,2.928
		c0.738,0.87,1.213,1.85,1.225,3.011c0.009,1.149-0.007,2.299,0.008,3.449c0.005,0.288-0.1,0.362-0.371,0.359
		c-1.16-0.012-2.321-0.009-3.48-0.003c-0.823,0.002-0.729-0.107-0.747,0.756c-0.009,0.312,0.111,0.411,0.411,0.406
		c0.82-0.012,1.64-0.004,2.459-0.004c0.809,0,1.617,0.002,2.425,0c0.4,0,0.417-0.019,0.417-0.413
		C66.146,57.248,66.143,55.715,66.146,54.182z"/>
	<path fill="#F1574D" d="M39.561,58.455c0.002-0.41-0.013-0.421-0.439-0.421c-1.255-0.001-2.512-0.009-3.768,0.004
		c-0.285,0.003-0.391-0.075-0.387-0.377c0.017-1.117,0.011-2.236,0.005-3.353c-0.003-0.765,0.182-1.475,0.559-2.136
		c0.846-1.483,2.14-2.455,3.646-3.179c0.694-0.336,1.433-0.542,2.166-0.764c0.079-0.024,0.185-0.028,0.206-0.124
		c0.022-0.105-0.084-0.138-0.149-0.185c-0.255-0.175-0.518-0.337-0.769-0.518c-1.641-1.184-2.393-2.805-2.117-4.792
		c0.284-2.054,1.481-3.49,3.479-4.086c2.055-0.615,3.846-0.055,5.28,1.56c0.47,0.528,0.45,0.53,1.074,0.144
		c0.244-0.151,0.266-0.272,0.096-0.498c-1.445-1.898-3.348-2.811-5.726-2.52c-2.445,0.298-4.161,1.661-5.007,3.958
		c-0.854,2.313-0.377,4.441,1.256,6.293c0.186,0.21,0.174,0.277-0.082,0.389c-1.239,0.548-2.351,1.291-3.273,2.289
		c-0.906,0.983-1.605,2.092-1.72,3.454c-0.076,0.896-0.014,1.807-0.014,2.711c-0.008,0-0.016,0-0.023,0c0,0.82,0,1.64,0,2.46
		c0,0.414,0.014,0.429,0.433,0.429c1.511,0.001,3.022,0,4.534,0C39.656,59.194,39.557,59.242,39.561,58.455z"/>
</g>
<circle fill="none" stroke="#F1574D" stroke-width="1.5" stroke-miterlimit="10" cx="50" cy="49.999" r="23.095"/>
</svg>
